0
SECTION
2
HEADER
9
$INSUNITS
70
4
9
$ACADVER
1
AC1014
9
$HANDSEED
5
FFFF
0
ENDSEC
0
SECTION
2
TABLES
0
TABLE
2
VPORT
5
8
100
AcDbSymbolTable
0
ENDTAB
0
TABLE
2
LTYPE
5
5
100
AcDbSymbolTable
0
LTYPE
5
14
100
AcDbSymbolTableRecord
100
AcDbLinetypeTableRecord
2
BYBLOCK
70
0
0
LTYPE
5
15
100
AcDbSymbolTableRecord
100
AcDbLinetypeTableRecord
2
BYLAYER
70
0
0
ENDTAB
0
TABLE
2
LAYER
5
2
100
AcDbSymbolTable
70
2
0
LAYER
5
50
100
AcDbSymbolTableRecord
100
AcDbLayerTableRecord
2
0
70
0
6
CONTINUOUS
0
ENDTAB
0
TABLE
2
STYLE
5
3
100
AcDbSymbolTable
70
1
0
STYLE
5
11
100
AcDbSymbolTableRecord
100
AcDbTextStyleTableRecord
2
STANDARD
70
0
0
ENDTAB
0
TABLE
2
VIEW
5
6
100
AcDbSymbolTable
70
0
0
ENDTAB
0
TABLE
2
UCS
5
7
100
AcDbSymbolTable
70
0
0
ENDTAB
0
TABLE
2
APPID
5
9
100
AcDbSymbolTable
70
2
0
APPID
5
12
100
AcDbSymbolTableRecord
100
AcDbRegAppTableRecord
2
ACAD
70
0
0
ENDTAB
0
TABLE
2
DIMSTYLE
5
A
100
AcDbSymbolTable
70
1
0
ENDTAB
0
TABLE
2
BLOCK_RECORD
5
1
100
AcDbSymbolTable
70
1
0
BLOCK_RECORD
5
1F
100
AcDbSymbolTableRecord
100
AcDbBlockTableRecord
2
*MODEL_SPACE
0
BLOCK_RECORD
5
1B
100
AcDbSymbolTableRecord
100
AcDbBlockTableRecord
2
*PAPER_SPACE
0
ENDTAB
0
ENDSEC
0
SECTION
2
BLOCKS
0
BLOCK
5
20
100
AcDbEntity
100
AcDbBlockBegin
2
*MODEL_SPACE
0
ENDBLK
5
21
100
AcDbEntity
100
AcDbBlockEnd
0
BLOCK
5
1C
100
AcDbEntity
100
AcDbBlockBegin
2
*PAPER_SPACE
0
ENDBLK
5
1D
100
AcDbEntity
100
AcDbBlockEnd
0
ENDSEC
0
SECTION
2
ENTITIES
0
LWPOLYLINE
5
100
100
AcDbEntity
8
0
100
AcDbPolyline
90
8
70
1
43
0.0
10
64
20
0
10
1.9999999999999973
20
1.1102230246251565e-15
42
-0.41421356237309481
10
-2.2204460492503131e-15
20
2.0000000000000018
10
-4.4408920985006262e-15
20
41
42
-0.41421356237309537
10
2.0000000000000018
20
43
10
64.000000000000014
20
43
42
-0.4142135623730937
10
66
20
41
10
66
20
1.9999999999999996
42
-0.41421356237309276
0
LWPOLYLINE
5
101
100
AcDbEntity
8
0
100
AcDbPolyline
90
4
70
1
43
0.0
10
57
20
8
10
44
20
8
10
44
20
19
10
57
20
19
0
CIRCLE
5
102
100
AcDbEntity
8
0
100
AcDbCircle
10
3.9999999999999982
20
3.5000000000000004
30
0
40
1.6000000000000005
0
CIRCLE
5
103
100
AcDbEntity
8
0
100
AcDbCircle
10
3.9999999999999982
20
39.499999999999993
30
0
40
1.6000000000000005
0
CIRCLE
5
104
100
AcDbEntity
8
0
100
AcDbCircle
10
62.065474529302769
20
39.5
30
0
40
1.5999999999999996
0
CIRCLE
5
105
100
AcDbEntity
8
0
100
AcDbCircle
10
62.065474529302769
20
3.5000000000000004
30
0
40
1.6000000000000001
0
LWPOLYLINE
5
106
100
AcDbEntity
8
0
100
AcDbPolyline
90
4
70
1
43
0.0
10
33
20
18.969420893393622
10
13
20
18.969420893393622
10
13.96720794094837
20
9.0164921350589626
10
31.96720794094837
20
9.0164921350589626
0
LWPOLYLINE
5
107
100
AcDbEntity
8
0
100
AcDbPolyline
90
3
70
1
43
0.0
10
9.9999999999999982
20
10.899739673110817
42
-0.99999999999999989
10
9.9999999999999982
20
17.100260326889185
10
9.9999999999999982
20
14.000000000000002
0
LINE
5
108
100
AcDbEntity
8
0
100
AcDbLine
10
9.9999999999999982
20
17.100260326889185
30
0
11
13.18164170433921
21
17.100260326889185
31
0
0
LINE
5
109
100
AcDbEntity
8
0
100
AcDbLine
10
9.9999999999999982
20
10.899739673110817
30
0
11
13.784197289731775
21
10.899739673110817
31
0
0
ARC
5
110
100
AcDbEntity
8
0
100
AcDbCircle
10
36
20
13.984716530223949
30
0
40
3.0177726783359171
100
AcDbArc
50
-90
51
90
0
LINE
5
111
100
AcDbEntity
8
0
100
AcDbLine
10
36
20
17.002489208559865
30
0
11
32.795896115192001
21
17.002489208559865
31
0
0
LINE
5
112
100
AcDbEntity
8
0
100
AcDbLine
10
36
20
10.966943851888031
30
0
11
32.169601738152814
21
10.966943851888031
31
0
0
LINE
5
113
100
AcDbEntity
8
0
100
AcDbLine
10
33.032737264651402
20
43.000000000000007
30
0
11
33.032737264651416
21
0
31
0
0
LINE
5
114
100
AcDbEntity
8
0
100
AcDbLine
10
3.9999999999999982
20
3.5000000000000004
30
0
11
62.065474529302769
21
3.5000000000000004
31
0
0
LINE
5
115
100
AcDbEntity
8
0
100
AcDbLine
10
62.065474529302769
20
3.5000000000000004
30
0
11
62.065474529302769
21
39.5
31
0
0
LINE
5
116
100
AcDbEntity
8
0
100
AcDbLine
10
62.065474529302769
20
39.5
30
0
11
3.9999999999999982
21
39.499999999999993
31
0
0
LINE
5
117
100
AcDbEntity
8
0
100
AcDbLine
10
3.9999999999999982
20
39.499999999999993
30
0
11
3.9999999999999982
21
3.5000000000000004
31
0
0
LINE
5
118
100
AcDbEntity
8
0
100
AcDbLine
10
3.9999999999999982
20
3.5000000000000004
30
0
11
62.065474529302769
21
39.5
31
0
0
LINE
5
119
100
AcDbEntity
8
0
100
AcDbLine
10
62.065474529302769
20
3.5000000000000004
30
0
11
3.9999999999999982
21
39.499999999999993
31
0
0
ENDSEC
0
SECTION
2
OBJECTS
0
DICTIONARY
5
C
100
AcDbDictionary
3
ACAD_GROUP
350
D
3
ACAD_MLINESTYLE
350
17
0
DICTIONARY
5
D
100
AcDbDictionary
0
DICTIONARY
5
1A
330
C
100
AcDbDictionary
0
DICTIONARY
5
17
100
AcDbDictionary
0
ENDSEC
0
EOF
